# xmcd
# 
# Track frame offsets:
#     150
#     10180
#     24883
#     49738
# 
# Disc length: 892
# 
# Revision: 0
# Processed by: cddbd v1.5.2PL0 Copyright (c) Steve Scherf et al.
# Submitted via: fre:ac v1.0.17
# 
DISCID=21037a04
DTITLE=Overoth - Pathway to Demise (Demo 2006)
DYEAR=2006
DGENRE=Death Metal
TTITLE0=Ambience Ov The Underworld
TTITLE1=Led To The Slaughter
TTITLE2=Diciples Ov Death
TTITLE3=Pathway To Demise
EXTD=
EXTT0=
EXTT1=
EXTT2=
EXTT3=
PLAYORDER=
